<svg width="398" height="398" viewBox="0 0 398 398" fill="none" xmlns="http://www.w3.org/2000/svg">
    <rect opacity="0.4" x="64" y="14" width="96" height="96" rx="24" fill="url(#paint0_linear_19802_4015)"/>
    <rect opacity="0.4" x="176" y="14" width="96" height="96" rx="24" fill="url(#paint1_linear_19802_4015)"/>
    <rect opacity="0.4" x="288" y="14" width="96" height="96" rx="24" fill="url(#paint2_linear_19802_4015)"/>
    <rect opacity="0.4" x="288" y="126" width="96" height="96" rx="24" fill="url(#paint3_linear_19802_4015)"/>
    <rect opacity="0.4" x="176" y="126" width="96" height="96" rx="24" fill="url(#paint4_linear_19802_4015)"/>
    <rect opacity="0.4" x="64" y="126" width="96" height="96" rx="24" fill="url(#paint5_linear_19802_4015)"/>
    <rect opacity="0.4" x="176" y="238" width="96" height="96" rx="24" fill="url(#paint6_linear_19802_4015)"/>
    <rect opacity="0.4" x="288" y="238" width="96" height="96" rx="24" fill="url(#paint7_linear_19802_4015)"/>
    <path d="M126.609 46.3478H97.3914V72.4348H126.609V46.3478Z" fill="white"/>
    <path fill-rule="evenodd" clip-rule="evenodd" d="M136 62C136 75.255 125.255 86 112 86C98.7452 86 88 75.255 88 62C88 48.7452 98.7452 38 112 38C125.255 38 136 48.7452 136 62ZM105.199 71.5508H100.541C99.5626 71.5508 99.0792 71.5508 98.7844 71.3622C98.466 71.1558 98.2715 70.8139 98.2479 70.4364C98.2302 70.0887 98.4719 69.6641 98.9554 68.8151L110.456 48.5439C110.945 47.6831 111.193 47.2527 111.505 47.0935C111.841 46.9225 112.242 46.9225 112.578 47.0935C112.891 47.2527 113.139 47.6831 113.628 48.5439L115.992 52.671L116.004 52.692C116.533 53.6155 116.801 54.0838 116.918 54.5753C117.047 55.1118 117.047 55.6778 116.918 56.2144C116.8 56.7096 116.535 57.1813 115.998 58.1187L109.957 68.7974L109.941 68.8248C109.409 69.7558 109.14 70.2277 108.766 70.5838C108.359 70.973 107.87 71.2558 107.333 71.4153C106.844 71.5508 106.296 71.5508 105.199 71.5508ZM116.961 71.5508H123.635C124.62 71.5508 125.115 71.5508 125.41 71.3565C125.729 71.15 125.929 70.802 125.947 70.4249C125.964 70.0884 125.727 69.6803 125.264 68.8806C125.248 68.8534 125.232 68.8257 125.216 68.7975L121.873 63.0786L121.835 63.0142C121.365 62.2198 121.128 61.8186 120.823 61.6636C120.487 61.4925 120.092 61.4925 119.756 61.6636C119.449 61.8227 119.202 62.2413 118.712 63.0844L115.381 68.8034L115.37 68.8231C114.882 69.6649 114.639 70.0855 114.656 70.4307C114.68 70.8081 114.874 71.1558 115.193 71.3622C115.482 71.5508 115.977 71.5508 116.961 71.5508Z" fill="#E84142"/>
    <path d="M136 174C136 160.745 125.255 150 112 150C98.7452 150 88 160.745 88 174C88 187.255 98.7452 198 112 198C125.255 198 136 187.255 136 174Z" fill="#121212"/>
    <path d="M121.5 168C123.985 168 126 165.985 126 163.5C126 161.015 123.985 159 121.5 159C119.015 159 117 161.015 117 163.5C117 165.985 119.015 168 121.5 168Z" fill="white"/>
    <path d="M105.446 163H101V185H121V180.877H105.446V163Z" fill="white"/>
    <path d="M224 198C237.255 198 248 187.255 248 174C248 160.745 237.255 150 224 150C210.745 150 200 160.745 200 174C200 187.255 210.745 198 224 198Z" fill="#FF0420"/>
    <path fill-rule="evenodd" clip-rule="evenodd" d="M213.838 180.921C214.726 181.64 215.867 182 217.258 182C218.943 182 220.288 181.57 221.294 180.71C222.299 179.836 223.007 178.52 223.416 176.761C223.662 175.683 223.872 174.572 224.048 173.43C224.106 173.019 224.136 172.678 224.136 172.409C224.136 171.51 223.931 170.74 223.522 170.098C223.112 169.443 222.551 168.955 221.837 168.634C221.124 168.3 220.317 168.133 219.416 168.133C216.107 168.133 214.054 169.899 213.259 173.43C212.978 174.726 212.762 175.837 212.609 176.761C212.551 177.172 212.522 177.519 212.522 177.801C212.522 179.15 212.96 180.19 213.838 180.921ZM219.171 178.591C218.715 179.015 218.159 179.227 217.504 179.227C216.381 179.227 215.82 178.636 215.82 177.455C215.82 177.172 215.843 176.903 215.89 176.646C216.101 175.4 216.311 174.348 216.522 173.487C216.721 172.614 217.048 171.966 217.504 171.542C217.972 171.118 218.533 170.907 219.188 170.907C220.299 170.907 220.855 171.491 220.855 172.659C220.855 172.942 220.832 173.218 220.785 173.487C220.644 174.386 220.44 175.439 220.171 176.646C219.972 177.519 219.639 178.167 219.171 178.591ZM224.645 181.672C224.715 181.762 224.814 181.807 224.943 181.807H227.329C227.446 181.807 227.557 181.762 227.662 181.672C227.767 181.582 227.832 181.467 227.855 181.325L228.662 177.108H231.031C232.563 177.108 233.767 176.754 234.645 176.048C235.533 175.342 236.124 174.251 236.416 172.774C236.487 172.428 236.522 172.094 236.522 171.773C236.522 170.656 236.124 169.802 235.329 169.211C234.545 168.621 233.504 168.325 232.206 168.325H227.539C227.422 168.325 227.311 168.37 227.206 168.46C227.101 168.55 227.036 168.666 227.013 168.807L224.592 181.325C224.569 181.454 224.586 181.569 224.645 181.672ZM232.434 174.007C232.071 174.302 231.645 174.45 231.153 174.45H229.136L229.803 171.002H231.908C232.387 171.002 232.726 171.105 232.925 171.311C233.124 171.503 233.224 171.786 233.224 172.158C233.224 172.325 233.206 172.517 233.171 172.736C233.054 173.288 232.808 173.711 232.434 174.007Z" fill="white"/>
    <path d="M224 86C237.255 86 248 75.2549 248 62C248 48.7452 237.255 38 224 38C210.745 38 200 48.7452 200 62C200 75.2549 210.745 86 224 86Z" fill="#627EEA"/>
    <path d="M224.735 43.6357V56.3764L235.274 61.1883L224.735 43.6357Z" fill="white" fill-opacity="0.602"/>
    <path d="M224.735 43.6357L214.194 61.1883L224.735 56.3764V43.6357Z" fill="white"/>
    <path d="M224.735 69.4449V78.102L235.281 63.1937L224.735 69.4449Z" fill="white" fill-opacity="0.602"/>
    <path d="M224.735 78.102V69.4434L214.194 63.1937L224.735 78.102Z" fill="white"/>
    <path d="M224.735 67.4415L235.274 61.1888L224.735 56.3798V67.4415Z" fill="white" fill-opacity="0.2"/>
    <path d="M214.194 61.1888L224.735 67.4415V56.3798L214.194 61.1888Z" fill="white" fill-opacity="0.602"/>
    <path fill-rule="evenodd" clip-rule="evenodd" d="M360 62C360 75.2548 349.236 86 335.958 86C323.361 86 313.026 76.328 312 64.0174H343.778V59.9826H312C313.026 47.6718 323.361 38 335.958 38C349.236 38 360 48.7451 360 62Z" fill="#0052FF"/>
    <path d="M341.785 171.993L345.31 166.012L354.811 180.811L354.816 183.651L354.785 164.108C354.762 163.63 354.509 163.193 354.104 162.935L336.998 153.095C336.598 152.899 336.09 152.901 335.691 153.101C335.637 153.128 335.586 153.158 335.538 153.19L335.478 153.227L318.874 162.849L318.809 162.879C318.726 162.917 318.643 162.965 318.564 163.021C318.249 163.247 318.04 163.581 317.973 163.956C317.962 164.012 317.955 164.07 317.951 164.128L317.978 180.054L326.828 166.337C327.942 164.518 330.37 163.932 332.623 163.964L335.268 164.034L319.683 189.028L321.52 190.085L337.292 164.059L344.263 164.034L328.532 190.717L335.088 194.487L335.871 194.938C336.202 195.073 336.593 195.079 336.927 194.959L354.274 184.906L350.957 186.828L341.785 171.993ZM343.13 191.364L336.508 180.972L340.55 174.114L349.246 187.819L343.13 191.364Z" fill="#2D374B"/>
    <path d="M336.508 180.972L343.129 191.364L349.246 187.819L340.55 174.114L336.508 180.972Z" fill="#28A0F0"/>
    <path d="M354.816 183.651L354.811 180.811L345.31 166.012L341.785 171.993L350.957 186.828L354.274 184.906C354.599 184.641 354.796 184.254 354.816 183.836L354.816 183.651Z" fill="#28A0F0"/>
    <path d="M315 186.329L319.683 189.028L335.268 164.034L332.623 163.964C330.37 163.932 327.942 164.518 326.828 166.337L317.978 180.054L315 184.629V186.329Z" fill="white"/>
    <path d="M344.264 164.034L337.293 164.059L321.521 190.085L327.034 193.259L328.533 190.717L344.264 164.034Z" fill="white"/>
    <path d="M357.753 163.998C357.695 162.54 356.906 161.206 355.669 160.429L338.339 150.462C337.116 149.846 335.588 149.846 334.363 150.462C334.218 150.535 317.509 160.225 317.509 160.225C317.278 160.336 317.055 160.468 316.846 160.618C315.742 161.409 315.069 162.639 315 163.989V184.629L317.977 180.054L317.951 164.129C317.955 164.07 317.962 164.013 317.973 163.956C318.04 163.582 318.249 163.247 318.564 163.022C318.643 162.965 335.637 153.128 335.691 153.101C336.09 152.901 336.598 152.899 336.998 153.095L354.104 162.935C354.509 163.193 354.762 163.63 354.785 164.107V183.836C354.764 184.254 354.599 184.642 354.274 184.906L350.957 186.828L349.246 187.819L343.13 191.364L336.927 194.958C336.593 195.079 336.202 195.072 335.871 194.938L328.532 190.717L327.033 193.259L333.628 197.056C333.846 197.18 334.04 197.29 334.2 197.38C334.447 197.518 334.615 197.611 334.675 197.64C335.143 197.868 335.818 198 336.425 198C336.983 198 337.526 197.898 338.04 197.696L356.056 187.263C357.09 186.461 357.699 185.253 357.753 183.944V163.998Z" fill="#96BEDC"/>
    <path d="M224 310C237.301 310 248 299.301 248 286C248 272.699 237.301 262 224 262C210.699 262 200 272.699 200 286C200 299.301 210.699 310 224 310Z" fill="#A46DFF"/>
    <path d="M231.091 281.132C230.587 280.835 229.94 280.835 229.364 281.132L225.332 283.585L222.596 285.145L218.636 287.598C218.132 287.895 217.484 287.895 216.908 287.598L213.812 285.666C213.308 285.368 212.948 284.774 212.948 284.105V280.389C212.948 279.795 213.236 279.2 213.812 278.829L216.908 276.971C217.412 276.674 218.06 276.674 218.636 276.971L221.732 278.903C222.236 279.2 222.596 279.795 222.596 280.464V282.916L225.332 281.281V278.754C225.332 278.16 225.044 277.565 224.468 277.194L218.708 273.701C218.204 273.404 217.556 273.404 216.98 273.701L211.077 277.268C210.501 277.565 210.213 278.16 210.213 278.754V285.74C210.213 286.334 210.501 286.929 211.077 287.301L216.908 290.793C217.412 291.09 218.06 291.09 218.636 290.793L222.596 288.415L225.332 286.78L229.292 284.402C229.796 284.105 230.443 284.105 231.02 284.402L234.115 286.26C234.619 286.557 234.979 287.152 234.979 287.821V291.536C234.979 292.131 234.691 292.725 234.115 293.097L231.091 294.955C230.587 295.252 229.94 295.252 229.364 294.955L226.268 293.097C225.764 292.8 225.404 292.205 225.404 291.536V289.158L222.668 290.793V293.245C222.668 293.84 222.956 294.435 223.532 294.806L229.364 298.299C229.868 298.596 230.516 298.596 231.091 298.299L236.923 294.806C237.427 294.509 237.787 293.914 237.787 293.245V286.186C237.787 285.591 237.499 284.997 236.923 284.625L231.091 281.132Z" fill="white"/>
    <path d="M336 310C349.301 310 360 299.301 360 286C360 272.699 349.301 262 336 262C322.699 262 312 272.699 312 286C312 299.301 322.699 310 336 310Z" fill="black"/>
    <mask id="mask0_19802_4015" style="mask-type:luminance" maskUnits="userSpaceOnUse" x="323" y="275" width="25" height="20">
        <path d="M347.963 275.718H323.817V294.642H347.963V275.718Z" fill="white"/>
    </mask>
    <g mask="url(#mask0_19802_4015)">
        <path d="M327.739 290.162C327.885 290.016 328.085 289.931 328.298 289.931H347.569C347.921 289.931 348.097 290.356 347.848 290.605L344.041 294.412C343.895 294.557 343.695 294.642 343.482 294.642H324.212C323.86 294.642 323.684 294.217 323.932 293.969L327.739 290.162Z" fill="url(#paint8_linear_19802_4015)"/>
        <path d="M327.739 275.949C327.891 275.803 328.091 275.718 328.298 275.718H347.569C347.921 275.718 348.097 276.143 347.848 276.392L344.041 280.199C343.895 280.344 343.695 280.429 343.482 280.429H324.212C323.86 280.429 323.684 280.004 323.932 279.755L327.739 275.949Z" fill="url(#paint9_linear_19802_4015)"/>
        <path d="M344.041 283.009C343.895 282.864 343.695 282.779 343.482 282.779H324.212C323.86 282.779 323.684 283.204 323.932 283.453L327.739 287.26C327.885 287.405 328.085 287.49 328.298 287.49H347.569C347.921 287.49 348.097 287.065 347.848 286.816L344.041 283.009Z" fill="url(#paint10_linear_19802_4015)"/>
    </g>
    <rect opacity="0.06" x="0.5" y="302.5" width="95" height="95" rx="23.5" fill="url(#paint11_linear_19802_4015)" stroke="black"/>
    <rect opacity="0.1" x="16" y="286" width="96" height="96" rx="24" fill="url(#paint12_linear_19802_4015)"/>
    <rect opacity="0.2" x="28" y="274" width="96" height="96" rx="24" fill="url(#paint13_linear_19802_4015)"/>
    <rect opacity="0.4" x="36" y="266" width="96" height="96" rx="24" fill="url(#paint14_linear_19802_4015)"/>
    <rect x="40" y="262" width="96" height="96" rx="24" fill="#0D091A"/>
    <rect opacity="0.3" x="40" y="262" width="96" height="96" rx="24" fill="url(#paint15_linear_19802_4015)"/>
    <path d="M94.5373 295.046C90.3824 295.046 87.4145 298.805 84.4467 301.575C84.8424 301.575 85.436 301.377 86.0295 301.377C87.0188 301.377 88.0081 301.575 88.9974 301.971C90.5803 300.388 92.1631 298.607 94.5373 298.607C95.7245 298.607 97.1095 299.201 98.0988 299.992C100.077 301.971 100.077 305.136 98.0988 307.115L92.9545 312.259C92.1631 313.051 90.5802 313.644 89.3931 313.644C86.6231 313.644 85.2381 311.863 84.2488 309.687L81.6767 312.259C83.2595 315.227 85.6338 317.403 89.1952 317.403C91.5695 317.403 93.7459 316.414 95.1309 314.831L100.275 309.687C102.056 307.906 103.243 305.73 103.243 303.158C102.847 298.805 98.8901 295.046 94.5373 295.046ZM86.0289 318.987L84.2482 320.767C83.4568 321.559 81.8739 322.152 80.6867 322.152C79.4996 322.152 78.1146 321.559 77.1253 320.767C75.1468 318.789 75.1468 315.425 77.1253 313.645L82.2696 308.5C83.061 307.709 84.6438 307.115 85.831 307.115C88.601 307.115 89.9859 309.094 90.9753 311.072L93.5474 308.5C91.9646 305.532 89.5903 303.356 86.0289 303.356C83.6546 303.356 81.4782 304.345 80.0932 305.928L74.9489 311.072C71.5853 314.436 71.5853 319.778 74.9489 322.944C78.1145 326.109 83.6546 326.307 86.6222 322.944L90.3815 319.184C89.7879 319.382 89.1943 319.382 88.6008 319.382C87.6115 319.382 86.8204 319.382 86.0289 318.987Z" fill="white"/>
    <circle opacity="0.2" cx="280" cy="230" r="6" fill="url(#paint16_linear_19802_4015)"/>
    <circle opacity="0.2" cx="280" cy="342" r="6" fill="url(#paint17_linear_19802_4015)"/>
    <circle opacity="0.2" cx="168" cy="342" r="6" fill="url(#paint18_linear_19802_4015)"/>
    <circle opacity="0.2" cx="392" cy="230" r="6" fill="url(#paint19_linear_19802_4015)"/>
    <circle opacity="0.2" cx="168" cy="118" r="6" fill="url(#paint20_linear_19802_4015)"/>
    <circle opacity="0.2" cx="56" cy="118" r="6" fill="url(#paint21_linear_19802_4015)"/>
    <circle opacity="0.2" cx="56" cy="230" r="6" fill="url(#paint22_linear_19802_4015)"/>
    <circle opacity="0.2" cx="168" cy="6" r="6" fill="url(#paint23_linear_19802_4015)"/>
    <circle opacity="0.2" cx="280" cy="118" r="6" fill="url(#paint24_linear_19802_4015)"/>
    <circle opacity="0.2" cx="280" cy="6" r="6" fill="url(#paint25_linear_19802_4015)"/>
    <circle opacity="0.2" cx="392" cy="118" r="6" fill="url(#paint26_linear_19802_4015)"/>
    <path opacity="0.4" fill-rule="evenodd" clip-rule="evenodd" d="M174 230C174 233.314 171.314 236 168 236C166.415 236 164.694 236.177 163.572 237.298L151.298 249.572C150.177 250.694 150 252.415 150 254C150 257.314 147.314 260 144 260C140.686 260 138 257.314 138 254C138 250.686 140.686 248 144 248C145.62 248 147.383 247.83 148.528 246.685L160.685 234.528C161.83 233.383 162 231.62 162 230C162 226.686 164.686 224 168 224C171.314 224 174 226.686 174 230Z" fill="url(#paint27_linear_19802_4015)"/>
    <defs>
        <linearGradient id="paint0_linear_19802_4015" x1="112" y1="14" x2="160.589" y2="91.4744" gradientUnits="userSpaceOnUse">
            <stop stop-color="#12163B"/>
            <stop offset="0.5625" stop-color="#5D2169"/>
            <stop offset="1" stop-color="#CC2B4A"/>
        </linearGradient>
        <linearGradient id="paint1_linear_19802_4015" x1="224" y1="14" x2="272.589" y2="91.4744" gradientUnits="userSpaceOnUse">
            <stop stop-color="#12163B"/>
            <stop offset="0.5625" stop-color="#5D2169"/>
            <stop offset="1" stop-color="#CC2B4A"/>
        </linearGradient>
        <linearGradient id="paint2_linear_19802_4015" x1="336" y1="14" x2="384.589" y2="91.4744" gradientUnits="userSpaceOnUse">
            <stop stop-color="#12163B"/>
            <stop offset="0.5625" stop-color="#5D2169"/>
            <stop offset="1" stop-color="#CC2B4A"/>
        </linearGradient>
        <linearGradient id="paint3_linear_19802_4015" x1="336" y1="126" x2="384.589" y2="203.474" gradientUnits="userSpaceOnUse">
            <stop stop-color="#12163B"/>
            <stop offset="0.5625" stop-color="#5D2169"/>
            <stop offset="1" stop-color="#CC2B4A"/>
        </linearGradient>
        <linearGradient id="paint4_linear_19802_4015" x1="224" y1="126" x2="272.589" y2="203.474" gradientUnits="userSpaceOnUse">
            <stop stop-color="#12163B"/>
            <stop offset="0.5625" stop-color="#5D2169"/>
            <stop offset="1" stop-color="#CC2B4A"/>
        </linearGradient>
        <linearGradient id="paint5_linear_19802_4015" x1="112" y1="126" x2="160.589" y2="203.474" gradientUnits="userSpaceOnUse">
            <stop stop-color="#12163B"/>
            <stop offset="0.5625" stop-color="#5D2169"/>
            <stop offset="1" stop-color="#CC2B4A"/>
        </linearGradient>
        <linearGradient id="paint6_linear_19802_4015" x1="224" y1="238" x2="272.589" y2="315.474" gradientUnits="userSpaceOnUse">
            <stop stop-color="#12163B"/>
            <stop offset="0.5625" stop-color="#5D2169"/>
            <stop offset="1" stop-color="#CC2B4A"/>
        </linearGradient>
        <linearGradient id="paint7_linear_19802_4015" x1="336" y1="238" x2="384.589" y2="315.474" gradientUnits="userSpaceOnUse">
            <stop stop-color="#12163B"/>
            <stop offset="0.5625" stop-color="#5D2169"/>
            <stop offset="1" stop-color="#CC2B4A"/>
        </linearGradient>
        <linearGradient id="paint8_linear_19802_4015" x1="345.728" y1="273.444" x2="332.391" y2="298.989" gradientUnits="userSpaceOnUse">
            <stop stop-color="#00FFA3"/>
            <stop offset="1" stop-color="#DC1FFF"/>
        </linearGradient>
        <linearGradient id="paint9_linear_19802_4015" x1="339.896" y1="270.399" x2="326.559" y2="295.944" gradientUnits="userSpaceOnUse">
            <stop stop-color="#00FFA3"/>
            <stop offset="1" stop-color="#DC1FFF"/>
        </linearGradient>
        <linearGradient id="paint10_linear_19802_4015" x1="342.793" y1="271.912" x2="329.456" y2="297.457" gradientUnits="userSpaceOnUse">
            <stop stop-color="#00FFA3"/>
            <stop offset="1" stop-color="#DC1FFF"/>
        </linearGradient>
        <linearGradient id="paint11_linear_19802_4015" x1="48" y1="302" x2="96.5889" y2="379.474" gradientUnits="userSpaceOnUse">
            <stop stop-color="#12163B"/>
            <stop offset="0.5625" stop-color="#5D2169"/>
            <stop offset="1" stop-color="#CC2B4A"/>
        </linearGradient>
        <linearGradient id="paint12_linear_19802_4015" x1="64" y1="286" x2="112.589" y2="363.474" gradientUnits="userSpaceOnUse">
            <stop stop-color="#12163B"/>
            <stop offset="0.5625" stop-color="#5D2169"/>
            <stop offset="1" stop-color="#CC2B4A"/>
        </linearGradient>
        <linearGradient id="paint13_linear_19802_4015" x1="76" y1="274" x2="124.589" y2="351.474" gradientUnits="userSpaceOnUse">
            <stop stop-color="#12163B"/>
            <stop offset="0.5625" stop-color="#5D2169"/>
            <stop offset="1" stop-color="#CC2B4A"/>
        </linearGradient>
        <linearGradient id="paint14_linear_19802_4015" x1="84" y1="266" x2="132.589" y2="343.474" gradientUnits="userSpaceOnUse">
            <stop stop-color="#12163B"/>
            <stop offset="0.5625" stop-color="#5D2169"/>
            <stop offset="1" stop-color="#CC2B4A"/>
        </linearGradient>
        <linearGradient id="paint15_linear_19802_4015" x1="88" y1="262" x2="136.589" y2="339.474" gradientUnits="userSpaceOnUse">
            <stop stop-color="#12163B"/>
            <stop offset="0.5625" stop-color="#5D2169"/>
            <stop offset="1" stop-color="#CC2B4A"/>
        </linearGradient>
        <linearGradient id="paint16_linear_19802_4015" x1="280" y1="224" x2="286.074" y2="233.684" gradientUnits="userSpaceOnUse">
            <stop stop-color="#12163B"/>
            <stop offset="0.5625" stop-color="#5D2169"/>
            <stop offset="1" stop-color="#CC2B4A"/>
        </linearGradient>
        <linearGradient id="paint17_linear_19802_4015" x1="280" y1="336" x2="286.074" y2="345.684" gradientUnits="userSpaceOnUse">
            <stop stop-color="#12163B"/>
            <stop offset="0.5625" stop-color="#5D2169"/>
            <stop offset="1" stop-color="#CC2B4A"/>
        </linearGradient>
        <linearGradient id="paint18_linear_19802_4015" x1="168" y1="336" x2="174.074" y2="345.684" gradientUnits="userSpaceOnUse">
            <stop stop-color="#12163B"/>
            <stop offset="0.5625" stop-color="#5D2169"/>
            <stop offset="1" stop-color="#CC2B4A"/>
        </linearGradient>
        <linearGradient id="paint19_linear_19802_4015" x1="392" y1="224" x2="398.074" y2="233.684" gradientUnits="userSpaceOnUse">
            <stop stop-color="#12163B"/>
            <stop offset="0.5625" stop-color="#5D2169"/>
            <stop offset="1" stop-color="#CC2B4A"/>
        </linearGradient>
        <linearGradient id="paint20_linear_19802_4015" x1="168" y1="112" x2="174.074" y2="121.684" gradientUnits="userSpaceOnUse">
            <stop stop-color="#12163B"/>
            <stop offset="0.5625" stop-color="#5D2169"/>
            <stop offset="1" stop-color="#CC2B4A"/>
        </linearGradient>
        <linearGradient id="paint21_linear_19802_4015" x1="56" y1="112" x2="62.0736" y2="121.684" gradientUnits="userSpaceOnUse">
            <stop stop-color="#12163B"/>
            <stop offset="0.5625" stop-color="#5D2169"/>
            <stop offset="1" stop-color="#CC2B4A"/>
        </linearGradient>
        <linearGradient id="paint22_linear_19802_4015" x1="56" y1="224" x2="62.0736" y2="233.684" gradientUnits="userSpaceOnUse">
            <stop stop-color="#12163B"/>
            <stop offset="0.5625" stop-color="#5D2169"/>
            <stop offset="1" stop-color="#CC2B4A"/>
        </linearGradient>
        <linearGradient id="paint23_linear_19802_4015" x1="168" y1="2.2429e-07" x2="174.074" y2="9.6843" gradientUnits="userSpaceOnUse">
            <stop stop-color="#12163B"/>
            <stop offset="0.5625" stop-color="#5D2169"/>
            <stop offset="1" stop-color="#CC2B4A"/>
        </linearGradient>
        <linearGradient id="paint24_linear_19802_4015" x1="280" y1="112" x2="286.074" y2="121.684" gradientUnits="userSpaceOnUse">
            <stop stop-color="#12163B"/>
            <stop offset="0.5625" stop-color="#5D2169"/>
            <stop offset="1" stop-color="#CC2B4A"/>
        </linearGradient>
        <linearGradient id="paint25_linear_19802_4015" x1="280" y1="2.2429e-07" x2="286.074" y2="9.6843" gradientUnits="userSpaceOnUse">
            <stop stop-color="#12163B"/>
            <stop offset="0.5625" stop-color="#5D2169"/>
            <stop offset="1" stop-color="#CC2B4A"/>
        </linearGradient>
        <linearGradient id="paint26_linear_19802_4015" x1="392" y1="112" x2="398.074" y2="121.684" gradientUnits="userSpaceOnUse">
            <stop stop-color="#12163B"/>
            <stop offset="0.5625" stop-color="#5D2169"/>
            <stop offset="1" stop-color="#CC2B4A"/>
        </linearGradient>
        <linearGradient id="paint27_linear_19802_4015" x1="156" y1="224" x2="174.221" y2="253.053" gradientUnits="userSpaceOnUse">
            <stop stop-color="#12163B"/>
            <stop offset="0.5625" stop-color="#5D2169"/>
            <stop offset="1" stop-color="#CC2B4A"/>
        </linearGradient>
    </defs>
</svg>
